HIERARCHY
ROOT hip
{
  OFFSET 0 90.174 2.4664
  CHANNELS 6 Xposition Yposition Zposition Zrotation Xrotation Yrotation
  JOINT abdomen
  {
    OFFSET 0 -1.186 -1.5018
    CHANNELS 6 Xposition Yposition Zposition Zrotation Xrotation Yrotation
    JOINT abdomen2
    {
      OFFSET 0 9.964 0.2134
      CHANNELS 6 Xposition Yposition Zposition Zrotation Xrotation Yrotation
      JOINT chest
      {
        OFFSET 0 13.134 -3.2573
        CHANNELS 6 Xposition Yposition Zposition Zrotation Xrotation Yrotation
        JOINT neck
        {
          OFFSET 0 20.686 -1.6905
          CHANNELS 6 Xposition Yposition Zposition Zrotation Xrotation Yrotation
          JOINT head
          {
            OFFSET 0 7.238 -0.1237
            CHANNELS 6 Xposition Yposition Zposition Zrotation Xrotation Yrotation
            End Site
            {
              OFFSET 0 0 0
            }
          }
        }
        JOINT lCollar
        {
          OFFSET 1.7069 20.075 5.0056
          CHANNELS 6 Xposition Yposition Zposition Zrotation Xrotation Yrotation
          JOINT lShldr
          {
            OFFSET 13.6458 -0.047 -4.849
            CHANNELS 6 Xposition Yposition Zposition Zrotation Xrotation Yrotation
            JOINT lForeArm
            {
              OFFSET 28.3255 -0.9759 2.2888
              CHANNELS 6 Xposition Yposition Zposition Zrotation Xrotation Yrotation
              JOINT lHand
              {
                OFFSET 22.1583 -0.53 10.8316
                CHANNELS 6 Xposition Yposition Zposition Zrotation Xrotation Yrotation
                JOINT lThumb1
                {
                  OFFSET 0.786 0.112 2.5817
                  CHANNELS 6 Xposition Yposition Zposition Zrotation Xrotation Yrotation
                  JOINT lThumb2
                  {
                    OFFSET 0.3601 -0.878 4.2331
                    CHANNELS 6 Xposition Yposition Zposition Zrotation Xrotation Yrotation
                    JOINT lThumb2_End
                    {
                      OFFSET 1.8127 -1.216 2.2227
                      CHANNELS 6 Xposition Yposition Zposition Zrotation Xrotation Yrotation
                      End Site
                      {
                        OFFSET 0.0181 -0.0122 0.0222
                      }
                    }
                  }
                }
                JOINT lCarpal1
                {
                  OFFSET 0.9571 1.114 1.7695
                  CHANNELS 6 Xposition Yposition Zposition Zrotation Xrotation Yrotation
                  JOINT lIndex1
                  {
                    OFFSET 4.1246 0.487 4.1451
                    CHANNELS 6 Xposition Yposition Zposition Zrotation Xrotation Yrotation
                    JOINT lIndex2
                    {
                      OFFSET 3.4052 -1.454 2.7682
                      CHANNELS 6 Xposition Yposition Zposition Zrotation Xrotation Yrotation
                      JOINT lIndex2_End
                      {
                        OFFSET 1.4531 -1.795 1.2713
                        CHANNELS 6 Xposition Yposition Zposition Zrotation Xrotation Yrotation
                        End Site
                        {
                          OFFSET 0.0145 -0.0179 0.0127
                        }
                      }
                    }
                  }
                  JOINT lMid1
                  {
                    OFFSET 5.6954 0.21 2.1184
                    CHANNELS 6 Xposition Yposition Zposition Zrotation Xrotation Yrotation
                    JOINT lMid2
                    {
                      OFFSET 3.9766 -1.54 2.3863
                      CHANNELS 6 Xposition Yposition Zposition Zrotation Xrotation Yrotation
                      JOINT lMid2_End
                      {
                        OFFSET 1.4042 -1.926 1.125
                        CHANNELS 6 Xposition Yposition Zposition Zrotation Xrotation Yrotation
                        End Site
                        {
                          OFFSET 0.014 -0.0193 0.0113
                        }
                      }
                    }
                  }
                }
                JOINT lCarpal2
                {
                  OFFSET 2.0956 0.66 -0.3894
                  CHANNELS 6 Xposition Yposition Zposition Zrotation Xrotation Yrotation
                  JOINT lRing1
                  {
                    OFFSET 5.0395 -0.09 2.4971
                    CHANNELS 6 Xposition Yposition Zposition Zrotation Xrotation Yrotation
                    JOINT lRing2
                    {
                      OFFSET 3.7921 -1.552 1.4806
                      CHANNELS 6 Xposition Yposition Zposition Zrotation Xrotation Yrotation
                      JOINT lRing2_End
                      {
                        OFFSET 1.4655 -1.808 0.9609
                        CHANNELS 6 Xposition Yposition Zposition Zrotation Xrotation Yrotation
                        End Site
                        {
                          OFFSET 0.0147 -0.0181 0.0096
                        }
                      }
                    }
                  }
                  JOINT lPinky1
                  {
                    OFFSET 4.9141 -1.269 0.3591
                    CHANNELS 6 Xposition Yposition Zposition Zrotation Xrotation Yrotation
                    JOINT lPinky2
                    {
                      OFFSET 3.1477 -1.685 0.8462
                      CHANNELS 6 Xposition Yposition Zposition Zrotation Xrotation Yrotation
                      JOINT lPinky2_End
                      {
                        OFFSET 0.8055 -1.585 0.7955
                        CHANNELS 6 Xposition Yposition Zposition Zrotation Xrotation Yrotation
                        End Site
                        {
                          OFFSET 0.0081 -0.0158 0.008
                        }
                      }
                    }
                  }
                }
              }
            }
          }
        }
        JOINT rCollar
        {
          OFFSET -1.7069 20.075 5.0056
          CHANNELS 6 Xposition Yposition Zposition Zrotation Xrotation Yrotation
          JOINT rShldr
          {
            OFFSET -13.6458 -0.047 -4.849
            CHANNELS 6 Xposition Yposition Zposition Zrotation Xrotation Yrotation
            JOINT rForeArm
            {
              OFFSET -28.3255 -0.9759 2.2888
              CHANNELS 6 Xposition Yposition Zposition Zrotation Xrotation Yrotation
              JOINT rHand
              {
                OFFSET -22.1583 -0.53 10.8316
                CHANNELS 6 Xposition Yposition Zposition Zrotation Xrotation Yrotation
                JOINT rThumb1
                {
                  OFFSET -0.786 0.112 2.5817
                  CHANNELS 6 Xposition Yposition Zposition Zrotation Xrotation Yrotation
                  JOINT rThumb2
                  {
                    OFFSET -0.3601 -0.878 4.2331
                    CHANNELS 6 Xposition Yposition Zposition Zrotation Xrotation Yrotation
                    JOINT rThumb2_End
                    {
                      OFFSET -1.8127 -1.216 2.2227
                      CHANNELS 6 Xposition Yposition Zposition Zrotation Xrotation Yrotation
                      End Site
                      {
                        OFFSET -0.0181 -0.0122 0.0222
                      }
                    }
                  }
                }
                JOINT rCarpal1
                {
                  OFFSET -0.9571 1.114 1.7695
                  CHANNELS 6 Xposition Yposition Zposition Zrotation Xrotation Yrotation
                  JOINT rIndex1
                  {
                    OFFSET -4.1246 0.487 4.1451
                    CHANNELS 6 Xposition Yposition Zposition Zrotation Xrotation Yrotation
                    JOINT rIndex2
                    {
                      OFFSET -3.4052 -1.454 2.7682
                      CHANNELS 6 Xposition Yposition Zposition Zrotation Xrotation Yrotation
                      JOINT rIndex2_End
                      {
                        OFFSET -1.4531 -1.795 1.2713
                        CHANNELS 6 Xposition Yposition Zposition Zrotation Xrotation Yrotation
                        End Site
                        {
                          OFFSET -0.0145 -0.018 0.0127
                        }
                      }
                    }
                  }
                  JOINT rMid1
                  {
                    OFFSET -5.6954 0.21 2.1184
                    CHANNELS 6 Xposition Yposition Zposition Zrotation Xrotation Yrotation
                    JOINT rMid2
                    {
                      OFFSET -3.9766 -1.54 2.3863
                      CHANNELS 6 Xposition Yposition Zposition Zrotation Xrotation Yrotation
                      JOINT rMid2_End
                      {
                        OFFSET -1.4042 -1.926 1.125
                        CHANNELS 6 Xposition Yposition Zposition Zrotation Xrotation Yrotation
                        End Site
                        {
                          OFFSET -0.014 -0.0193 0.0113
                        }
                      }
                    }
                  }
                }
                JOINT rCarpal2
                {
                  OFFSET -2.0956 0.66 -0.3894
                  CHANNELS 6 Xposition Yposition Zposition Zrotation Xrotation Yrotation
                  JOINT rRing1
                  {
                    OFFSET -5.0395 -0.09 2.4971
                    CHANNELS 6 Xposition Yposition Zposition Zrotation Xrotation Yrotation
                    JOINT rRing2
                    {
                      OFFSET -3.7921 -1.552 1.4806
                      CHANNELS 6 Xposition Yposition Zposition Zrotation Xrotation Yrotation
                      JOINT rRing2_End
                      {
                        OFFSET -1.4655 -1.808 0.9609
                        CHANNELS 6 Xposition Yposition Zposition Zrotation Xrotation Yrotation
                        End Site
                        {
                          OFFSET -0.0147 -0.0181 0.0096
                        }
                      }
                    }
                  }
                  JOINT rPinky1
                  {
                    OFFSET -4.9141 -1.269 0.3592
                    CHANNELS 6 Xposition Yposition Zposition Zrotation Xrotation Yrotation
                    JOINT rPinky2
                    {
                      OFFSET -3.1477 -1.685 0.8462
                      CHANNELS 6 Xposition Yposition Zposition Zrotation Xrotation Yrotation
                      JOINT rPinky2_End
                      {
                        OFFSET -0.8055 -1.585 0.7955
                        CHANNELS 6 Xposition Yposition Zposition Zrotation Xrotation Yrotation
                        End Site
                        {
                          OFFSET -0.0081 -0.0158 0.008
                        }
                      }
                    }
                  }
                }
              }
            }
          }
        }
      }
    }
  }
  JOINT lThigh
  {
    OFFSET 8.367 -8.2066 0.5982
    CHANNELS 6 Xposition Yposition Zposition Zrotation Xrotation Yrotation
    JOINT lShin
    {
      OFFSET 2.1923 -43.463 -0.4932
      CHANNELS 6 Xposition Yposition Zposition Zrotation Xrotation Yrotation
      JOINT lFoot
      {
        OFFSET 0.7333 -45.8593 -2.6451
        CHANNELS 6 Xposition Yposition Zposition Zrotation Xrotation Yrotation
        End Site
        {
          OFFSET 2.6618 -4.2699 12.3931
        }
      }
    }
  }
  JOINT rThigh
  {
    OFFSET -8.367 -8.2066 0.5982
    CHANNELS 6 Xposition Yposition Zposition Zrotation Xrotation Yrotation
    JOINT rShin
    {
      OFFSET -2.1923 -43.463 -0.4931
      CHANNELS 6 Xposition Yposition Zposition Zrotation Xrotation Yrotation
      JOINT rFoot
      {
        OFFSET -0.7333 -45.8593 -2.6451
        CHANNELS 6 Xposition Yposition Zposition Zrotation Xrotation Yrotation
        End Site
        {
          OFFSET -2.6618 -4.2699 12.3931
        }
      }
    }
  }
}
MOTION
Frames:	4
Frame Time:	0.0333333
0.982418 87.4424 31.1836 0 21.4492 -0 0 -1.186 -1.5018 0.345362 1.1903 -0.485548 0 9.964 0.2134 0.70103 2.37761 -0.978582 0 13.134 -3.2573 0.701031 2.37761 -0.978583 0 20.686 -1.6905 -8.27909e-006 -1.33681 -3.22926e-005 0 7.238 -0.1237 1.11087e-007 -10.147 -1.06119e-007 1.7069 20.075 5.0056 -23.9789 31.0834 -6.2237 13.6458 -0.047 -4.849 -79.9388 -53.7549 -49.1856 28.3255 -0.9759 2.2888 -86.8894 3.60797 5.97424 22.1583 -0.53 10.8316 141.329 22.892 -87.7144 0.786 0.112 2.5817 2.31827e-007 -3.41746e-007 -1.05412e-007 0.3601 -0.878 4.2331 2.31827e-007 -3.41746e-007 -1.05412e-007 1.8127 -1.216 2.2227 2.31827e-007 -3.41746e-007 -1.05412e-007 0.9571 1.114 1.7695 -9.54166e-015 -1.59028e-015 -0 4.1246 0.487 4.1451 2.31827e-007 -3.41746e-007 -1.05412e-007 3.4052 -1.454 2.7682 2.31827e-007 -3.41746e-007 -1.05412e-007 1.4531 -1.795 1.2713 2.31827e-007 -3.41746e-007 -1.05412e-007 5.6954 0.21 2.1184 2.31827e-007 -3.41746e-007 -1.05412e-007 3.9766 -1.54 2.3863 2.31827e-007 -3.41746e-007 -1.05412e-007 1.4042 -1.926 1.125 2.31827e-007 -3.41746e-007 -1.05412e-007 2.0956 0.66 -0.3894 -9.54166e-015 -1.59028e-015 -0 5.0395 -0.09 2.4971 2.31827e-007 -3.41746e-007 -1.05412e-007 3.7921 -1.552 1.4806 2.31827e-007 -3.41746e-007 -1.05412e-007 1.4655 -1.808 0.9609 2.31827e-007 -3.41746e-007 -1.05412e-007 4.9141 -1.269 0.3591 2.31827e-007 -3.41746e-007 -1.05412e-007 3.1477 -1.685 0.8462 2.31827e-007 -3.41746e-007 -1.05412e-007 0.8055 -1.585 0.7955 2.31827e-007 -3.41746e-007 -1.05412e-007 -1.7069 20.075 5.0056 23.0653 29.2007 6.51991 -13.6458 -0.047 -4.849 80.0395 -53.743 50.1052 -28.3255 -0.9759 2.2888 84.7272 2.72972 -6.11235 -22.1583 -0.53 10.8316 -142.617 23.6831 93.2602 -0.786 0.112 2.5817 -3.33935e-007 1.24528e-006 -2.17569e-006 -0.3601 -0.878 4.2331 2.30899e-007 3.43812e-007 -1.01384e-007 -1.8127 -1.216 2.2227 2.30899e-007 3.43812e-007 -1.01384e-007 -0.9571 1.114 1.7695 -8.82781e-032 1.59028e-015 3.18055e-015 -4.1246 0.487 4.1451 -3.33935e-007 1.24528e-006 -2.17569e-006 -3.4052 -1.454 2.7682 2.30899e-007 3.43812e-007 -1.01384e-007 -1.4531 -1.795 1.2713 2.30899e-007 3.43812e-007 -1.01384e-007 -5.6954 0.21 2.1184 -3.33935e-007 1.24528e-006 -2.17569e-006 -3.9766 -1.54 2.3863 2.30899e-007 3.43812e-007 -1.01384e-007 -1.4042 -1.926 1.125 2.30899e-007 3.43812e-007 -1.01384e-007 -2.0956 0.66 -0.3894 -8.82781e-032 1.59028e-015 3.18055e-015 -5.0395 -0.09 2.4971 -3.33935e-007 1.24528e-006 -2.17569e-006 -3.7921 -1.552 1.4806 2.30899e-007 3.43812e-007 -1.01384e-007 -1.4655 -1.808 0.9609 2.30899e-007 3.43812e-007 -1.01384e-007 -4.9141 -1.269 0.3592 -3.33935e-007 1.24528e-006 -2.17569e-006 -3.1477 -1.685 0.8462 2.30899e-007 3.43812e-007 -1.01384e-007 -0.8055 -1.585 0.7955 2.30899e-007 3.43812e-007 -1.01384e-007 8.367 -8.2066 0.5982 21.8102 -44.9912 26.614 2.1923 -43.463 -0.4932 -4.23881 29.0943 5.51801 0.7333 -45.8593 -2.6451 8.38775 8.70875 8.88804 -8.367 -8.2066 0.5982 -22.8547 -44.3664 -25.651 -2.1923 -43.463 -0.4931 4.19549 27.5818 -5.43294 -0.7333 -45.8593 -2.6451 -6.71281 10.5033 -9.86522 
0.982328 87.4099 30.9885 0 21.9001 -0 0 -1.186 -1.5018 0.346472 1.05978 -0.483771 0 9.964 0.2134 0.702064 2.11658 -0.974194 0 13.134 -3.2573 0.702063 2.11658 -0.974193 0 20.686 -1.6905 -2.28246e-005 -2.0209 4.11672e-006 0 7.238 -0.1237 -1.56645e-007 -11.1958 -4.90624e-007 1.7069 20.075 5.0056 -23.9789 31.0833 -6.2237 13.6458 -0.047 -4.849 -79.9388 -53.755 -49.1856 28.3255 -0.9759 2.2888 -86.8894 3.60798 5.97424 22.1583 -0.53 10.8316 141.418 23.1516 -87.6721 0.786 0.112 2.5817 -2.31816e-007 3.41683e-007 1.05582e-007 0.3601 -0.878 4.2331 -2.31816e-007 3.41683e-007 1.05582e-007 1.8127 -1.216 2.2227 -6.95448e-007 1.02505e-006 3.16746e-007 0.9571 1.114 1.7695 -6.36111e-015 0 -3.18055e-015 4.1246 0.487 4.1451 -2.31816e-007 3.41683e-007 1.05582e-007 3.4052 -1.454 2.7682 -2.31816e-007 3.41683e-007 1.05582e-007 1.4531 -1.795 1.2713 -6.95448e-007 1.02505e-006 3.16746e-007 5.6954 0.21 2.1184 -2.31816e-007 3.41683e-007 1.05582e-007 3.9766 -1.54 2.3863 -2.31816e-007 3.41683e-007 1.05582e-007 1.4042 -1.926 1.125 -6.95448e-007 1.02505e-006 3.16746e-007 2.0956 0.66 -0.3894 -6.36111e-015 0 -3.18055e-015 5.0395 -0.09 2.4971 -2.31816e-007 3.41683e-007 1.05582e-007 3.7921 -1.552 1.4806 -2.31816e-007 3.41683e-007 1.05582e-007 1.4655 -1.808 0.9609 -6.95448e-007 1.02505e-006 3.16746e-007 4.9141 -1.269 0.3591 -2.31816e-007 3.41683e-007 1.05582e-007 3.1477 -1.685 0.8462 -2.31816e-007 3.41683e-007 1.05582e-007 0.8055 -1.585 0.7955 -6.95448e-007 1.02505e-006 3.16746e-007 -1.7069 20.075 5.0056 23.0653 29.2006 6.52 -13.6458 -0.047 -4.849 80.0395 -53.7429 50.1052 -28.3255 -0.9759 2.2888 84.7272 2.72971 -6.11233 -22.1583 -0.53 10.8316 -142.734 23.9331 93.2348 -0.786 0.112 2.5817 -2.30892e-007 -3.43759e-007 1.01526e-007 -0.3601 -0.878 4.2331 -2.30892e-007 -3.43759e-007 1.01526e-007 -1.8127 -1.216 2.2227 6.36111e-015 1.59028e-015 -9.54166e-015 -0.9571 1.114 1.7695 0 0 -0 -4.1246 0.487 4.1451 -2.30892e-007 -3.43759e-007 1.01526e-007 -3.4052 -1.454 2.7682 -2.30892e-007 -3.43759e-007 1.01526e-007 -1.4531 -1.795 1.2713 6.36111e-015 3.18055e-015 -6.36111e-015 -5.6954 0.21 2.1184 -2.30892e-007 -3.43759e-007 1.01526e-007 -3.9766 -1.54 2.3863 -2.30892e-007 -3.43759e-007 1.01526e-007 -1.4042 -1.926 1.125 6.36111e-015 3.18055e-015 -6.36111e-015 -2.0956 0.66 -0.3894 0 0 -0 -5.0395 -0.09 2.4971 -2.30892e-007 -3.43759e-007 1.01526e-007 -3.7921 -1.552 1.4806 -2.30892e-007 -3.43759e-007 1.01526e-007 -1.4655 -1.808 0.9609 6.36111e-015 3.18055e-015 -6.36111e-015 -4.9141 -1.269 0.3592 -2.30892e-007 -3.43759e-007 1.01526e-007 -3.1477 -1.685 0.8462 -2.30892e-007 -3.43759e-007 1.01526e-007 -0.8055 -1.585 0.7955 6.36111e-015 3.18055e-015 -6.36111e-015 8.367 -8.2066 0.5982 21.772 -45.6255 26.177 2.1923 -43.463 -0.4932 -4.23478 29.0801 5.52808 0.7333 -45.8593 -2.6451 8.23606 8.9716 9.42462 -8.367 -8.2066 0.5982 -22.804 -44.998 -25.143 -2.1923 -43.463 -0.4931 4.19139 27.5678 -5.44357 -0.7333 -45.8593 -2.6451 -6.51844 10.7612 -10.4791 
0.982203 87.3771 30.7932 0 22.351 -0 0 -1.186 -1.5018 0.347563 0.929226 -0.481959 -2.22045e-016 9.964 0.2134 0.70307 1.85549 -0.969738 0 13.134 -3.2573 0.70307 1.85549 -0.969739 0 20.686 -1.6905 3.27289e-005 -2.70475 -6.41531e-005 0 7.238 -0.1237 -5.16498e-009 -12.2448 3.96339e-007 1.7069 20.075 5.0056 -23.9788 31.0834 -6.22371 13.6458 -0.047 -4.849 -79.9388 -53.7549 -49.1856 28.3255 -0.9759 2.2888 -86.8894 3.60797 5.97425 22.1583 -0.53 10.8316 141.507 23.4113 -87.6301 0.786 0.112 2.5817 3.18055e-015 -7.95139e-015 3.18055e-015 0.3601 -0.878 4.2331 -4.6361e-007 6.8324e-007 2.11503e-007 1.8127 -1.216 2.2227 -3.18055e-015 3.18055e-015 -0 0.9571 1.114 1.7695 -3.18055e-015 -3.18055e-015 3.18055e-015 4.1246 0.487 4.1451 6.36111e-015 6.36111e-015 3.18055e-015 3.4052 -1.454 2.7682 -4.6361e-007 6.8324e-007 2.11503e-007 1.4531 -1.795 1.2713 -6.36111e-015 0 -0 5.6954 0.21 2.1184 6.36111e-015 6.36111e-015 3.18055e-015 3.9766 -1.54 2.3863 -4.6361e-007 6.8324e-007 2.11503e-007 1.4042 -1.926 1.125 -6.36111e-015 0 -0 2.0956 0.66 -0.3894 -3.18055e-015 -3.18055e-015 3.18055e-015 5.0395 -0.09 2.4971 6.36111e-015 6.36111e-015 3.18055e-015 3.7921 -1.552 1.4806 -4.6361e-007 6.8324e-007 2.11503e-007 1.4655 -1.808 0.9609 -6.36111e-015 0 -0 4.9141 -1.269 0.3591 6.36111e-015 6.36111e-015 3.18055e-015 3.1477 -1.685 0.8462 -4.6361e-007 6.8324e-007 2.11503e-007 0.8055 -1.585 0.7955 -6.36111e-015 0 -0 -1.7069 20.075 5.0056 23.0654 29.2008 6.51986 -13.6458 -0.047 -4.849 80.0394 -53.743 50.1052 -28.3255 -0.9759 2.2888 84.7272 2.72973 -6.11234 -22.1583 -0.53 10.8316 -142.852 24.1831 93.21 -0.786 0.112 2.5817 6.92657e-007 1.03112e-006 -3.05e-007 -0.3601 -0.878 4.2331 4.61771e-007 6.87411e-007 -2.03333e-007 -1.8127 -1.216 2.2227 -1.05934e-030 6.36111e-015 9.54166e-015 -0.9571 1.114 1.7695 -6.36111e-015 4.77083e-015 -0 -4.1246 0.487 4.1451 6.92657e-007 1.03112e-006 -3.05e-007 -3.4052 -1.454 2.7682 4.61771e-007 6.87411e-007 -2.03333e-007 -1.4531 -1.795 1.2713 -3.18055e-015 4.77083e-015 6.36111e-015 -5.6954 0.21 2.1184 6.92657e-007 1.03112e-006 -3.05e-007 -3.9766 -1.54 2.3863 4.61771e-007 6.87411e-007 -2.03333e-007 -1.4042 -1.926 1.125 -3.18055e-015 4.77083e-015 6.36111e-015 -2.0956 0.66 -0.3894 -6.36111e-015 4.77083e-015 -0 -5.0395 -0.09 2.4971 6.92657e-007 1.03112e-006 -3.05e-007 -3.7921 -1.552 1.4806 4.61771e-007 6.87411e-007 -2.03333e-007 -1.4655 -1.808 0.9609 -3.18055e-015 4.77083e-015 6.36111e-015 -4.9141 -1.269 0.3592 6.92657e-007 1.03112e-006 -3.05e-007 -3.1477 -1.685 0.8462 4.61771e-007 6.87411e-007 -2.03333e-007 -0.8055 -1.585 0.7955 -3.18055e-015 4.77083e-015 6.36111e-015 8.367 -8.2066 0.5982 21.727 -46.2593 25.7348 2.1923 -43.463 -0.4932 -4.2308 29.0662 5.53803 0.7333 -45.8593 -2.6451 8.08153 9.23301 9.9623 -8.367 -8.2066 0.5982 -22.7453 -45.629 -24.6289 -2.1923 -43.463 -0.4931 4.18726 27.5537 -5.454 -0.7333 -45.8593 -2.6451 -6.32087 11.0172 -11.0944 
0.982044 87.3441 30.5978 0 22.8019 -0 0 -1.186 -1.5018 0.348676 0.798805 -0.480172 0 9.964 0.2134 0.704138 1.59458 -0.965337 4.44089e-016 13.134 -3.2573 0.704138 1.59458 -0.965337 0 20.686 -1.6905 -6.42586e-005 -3.38929 3.97832e-005 0 7.238 -0.1237 6.36632e-007 -13.2936 -7.68803e-008 1.7069 20.075 5.0056 -23.9789 31.0832 -6.22369 13.6458 -0.047 -4.849 -79.9388 -53.7549 -49.1856 28.3255 -0.9759 2.2888 -86.8894 3.60798 5.97425 22.1583 -0.53 10.8316 141.597 23.671 -87.5886 0.786 0.112 2.5817 -2.31794e-007 3.41557e-007 1.05921e-007 0.3601 -0.878 4.2331 -6.95381e-007 1.02467e-006 3.17762e-007 1.8127 -1.216 2.2227 -2.31794e-007 3.41557e-007 1.05921e-007 0.9571 1.114 1.7695 3.18055e-015 0 -0 4.1246 0.487 4.1451 -2.31794e-007 3.41557e-007 1.05921e-007 3.4052 -1.454 2.7682 -6.95381e-007 1.02467e-006 3.17762e-007 1.4531 -1.795 1.2713 -2.31794e-007 3.41557e-007 1.05921e-007 5.6954 0.21 2.1184 -2.31794e-007 3.41557e-007 1.05921e-007 3.9766 -1.54 2.3863 -6.95381e-007 1.02467e-006 3.17762e-007 1.4042 -1.926 1.125 -2.31794e-007 3.41557e-007 1.05921e-007 2.0956 0.66 -0.3894 3.18055e-015 0 -0 5.0395 -0.09 2.4971 -2.31794e-007 3.41557e-007 1.05921e-007 3.7921 -1.552 1.4806 -6.95381e-007 1.02467e-006 3.17762e-007 1.4655 -1.808 0.9609 -2.31794e-007 3.41557e-007 1.05921e-007 4.9141 -1.269 0.3591 -2.31794e-007 3.41557e-007 1.05921e-007 3.1477 -1.685 0.8462 -6.95381e-007 1.02467e-006 3.17762e-007 0.8055 -1.585 0.7955 -2.31794e-007 3.41557e-007 1.05921e-007 -1.7069 20.075 5.0056 23.0652 29.2006 6.52007 -13.6458 -0.047 -4.849 80.0395 -53.743 50.1052 -28.3255 -0.9759 2.2888 84.7272 2.72971 -6.11235 -22.1583 -0.53 10.8316 -142.971 24.4332 93.1857 -0.786 0.112 2.5817 -2.30878e-007 -3.43652e-007 1.01807e-007 -0.3601 -0.878 4.2331 -3.18055e-015 -4.77083e-015 -3.18055e-015 -1.8127 -1.216 2.2227 -2.30878e-007 -3.43652e-007 1.01807e-007 -0.9571 1.114 1.7695 0 1.59028e-015 -0 -4.1246 0.487 4.1451 -2.30878e-007 -3.43652e-007 1.01807e-007 -3.4052 -1.454 2.7682 -6.36111e-015 -1.59028e-015 -0 -1.4531 -1.795 1.2713 -2.30879e-007 -3.43652e-007 1.01807e-007 -5.6954 0.21 2.1184 -2.30878e-007 -3.43652e-007 1.01807e-007 -3.9766 -1.54 2.3863 -6.36111e-015 -1.59028e-015 -0 -1.4042 -1.926 1.125 -2.30879e-007 -3.43652e-007 1.01807e-007 -2.0956 0.66 -0.3894 0 1.59028e-015 -0 -5.0395 -0.09 2.4971 -2.30878e-007 -3.43652e-007 1.01807e-007 -3.7921 -1.552 1.4806 -6.36111e-015 -1.59028e-015 -0 -1.4655 -1.808 0.9609 -2.30879e-007 -3.43652e-007 1.01807e-007 -4.9141 -1.269 0.3592 -2.30878e-007 -3.43652e-007 1.01807e-007 -3.1477 -1.685 0.8462 -6.36111e-015 -1.59028e-015 -0 -0.8055 -1.585 0.7955 -2.30879e-007 -3.43652e-007 1.01807e-007 8.367 -8.2066 0.5982 21.6748 -46.8924 25.2871 2.1923 -43.463 -0.4932 -4.22674 29.0518 5.54774 0.7333 -45.8593 -2.6451 7.92416 9.49326 10.501 -8.367 -8.2066 0.5982 -22.6784 -46.2591 -24.1086 -2.1923 -43.463 -0.4931 4.18314 27.5395 -5.4642 -0.7333 -45.8593 -2.6451 -6.12012 11.2711 -11.711 
